# xmcd
#
# Track frame offsets: 
#        150
#        24837
#        57249
#        84577
#        109873
#        138625
#        167834
#        192530
#        213775
#        243794
#
# Disc length: 3604 seconds
#
# Revision: 0
# Processed by: cddbd v1.5.2PL0 Copyright (c) Steve Scherf et al.
# Submitted via: ExactAudioCopy v0.95b4
#
DISCID=830e120a
DTITLE=Jazz Inflections - Viva Gershwin!
DYEAR=2006
DGENRE=Jazz
TTITLE0=Eddie Higgins - Summertime
TTITLE1=Zoot Sims - I Can't Get Started
TTITLE2=Marcus Roberts - It ain't Necessarily So
TTITLE3=Ben Webster - The MAn I Love
TTITLE4=Frank Wess - Hiw Long Has This Been Going On
TTITLE5=Regina Carter - Oh, Lady Be Good!
TTITLE6=Bill Charlap - Lorelei
TTITLE7=Archie Shepp - Embraceable You
TTITLE8=Oscar Peterson - Someone to Watch Over Me
TTITLE9=Monty Alexander - Summertime
EXTD=
EXTT0=
EXTT1=
EXTT2=
EXTT3=
EXTT4=
EXTT5=
EXTT6=
EXTT7=
EXTT8=
EXTT9=
PLAYORDER=
